<svg xmlns="http://www.w3.org/2000/svg" viewBox="0 0 1000 1009" font-family="Arial, Helvetica, sans-serif">
<defs>
  <defs>
    <style>
      .head  { font-family: Georgia, 'Times New Roman', serif; }
      .body  { font-family: Arial, Helvetica, sans-serif; }
      .fg    { fill: #1B4332; }
      .fw    { fill: #FFFFFF; }
      .fmute { fill: #52796F; }
    </style>
    <marker id="arrow" markerWidth="7" markerHeight="7" refX="5.5" refY="3.5" orient="auto">
      <path d="M0,0 L7,3.5 L0,7 Z" fill="#1B4332"/>
    </marker>
    <symbol id="ic-cloud" viewBox="0 0 24 24">
      <path d="M6.5 18 C3.5 18 2 15.8 2 13.8 C2 11.6 3.8 10 5.8 10.1 C6.4 7.6 8.7 6 11.2 6.3 C13.6 6.6 15.4 8.6 15.5 11 C17.9 11.1 20 13 20 15.3 C20 17.4 18.2 18 17 18 Z" fill="none" stroke="currentColor" stroke-width="1.6" stroke-linejoin="round"/>
    </symbol>
    <symbol id="ic-box" viewBox="0 0 24 24">
      <path d="M3 8 L12 4 L21 8 L12 12 Z" fill="none" stroke="currentColor" stroke-width="1.6" stroke-linejoin="round"/>
      <path d="M3 8 V17 L12 21 V12" fill="none" stroke="currentColor" stroke-width="1.6" stroke-linejoin="round"/>
      <path d="M21 8 V17 L12 21" fill="none" stroke="currentColor" stroke-width="1.6" stroke-linejoin="round"/>
    </symbol>
    <symbol id="ic-server" viewBox="0 0 24 24">
      <rect x="3" y="4" width="18" height="6" rx="1.3" fill="none" stroke="currentColor" stroke-width="1.6"/>
      <rect x="3" y="14" width="18" height="6" rx="1.3" fill="none" stroke="currentColor" stroke-width="1.6"/>
      <circle cx="7" cy="7" r="1" fill="currentColor"/>
      <circle cx="7" cy="17" r="1" fill="currentColor"/>
    </symbol>
    <symbol id="ic-monitor" viewBox="0 0 24 24">
      <rect x="2.5" y="4" width="19" height="13" rx="1.4" fill="none" stroke="currentColor" stroke-width="1.6"/>
      <line x1="8" y1="21" x2="16" y2="21" stroke="currentColor" stroke-width="1.6" stroke-linecap="round"/>
      <line x1="12" y1="17" x2="12" y2="21" stroke="currentColor" stroke-width="1.6" stroke-linecap="round"/>
    </symbol>
    <symbol id="ic-folder" viewBox="0 0 24 24">
      <path d="M3 6.5 C3 5.7 3.7 5 4.5 5 H9.5 L11.5 7.5 H19.5 C20.3 7.5 21 8.2 21 9 V17.5 C21 18.3 20.3 19 19.5 19 H4.5 C3.7 19 3 18.3 3 17.5 Z" fill="none" stroke="currentColor" stroke-width="1.6" stroke-linejoin="round"/>
    </symbol>
    <symbol id="ic-doc" viewBox="0 0 24 24">
      <path d="M6 3 H14 L19 8 V20 C19 20.6 18.6 21 18 21 H6 C5.4 21 5 20.6 5 20 V4 C5 3.4 5.4 3 6 3 Z" fill="none" stroke="currentColor" stroke-width="1.6" stroke-linejoin="round"/>
      <path d="M14 3 V8 H19" fill="none" stroke="currentColor" stroke-width="1.6" stroke-linejoin="round"/>
      <line x1="8" y1="12" x2="16" y2="12" stroke="currentColor" stroke-width="1.4" stroke-linecap="round"/>
      <line x1="8" y1="15.5" x2="16" y2="15.5" stroke="currentColor" stroke-width="1.4" stroke-linecap="round"/>
      <line x1="8" y1="19" x2="12.5" y2="19" stroke="currentColor" stroke-width="1.4" stroke-linecap="round"/>
    </symbol>
  </defs>
</defs>
<rect x="0" y="0" width="1000" height="1009" fill="#FFFFFF"/>

  <g transform="translate(40,20)">
    <path d="M12 42 V16" stroke="#1B4332" stroke-width="2.6" stroke-linecap="round" fill="none"/>
    <path d="M12 23 C12 14 5 12 0 14 C0 21 5 25 12 23 Z" fill="#74C69D" stroke="#1B4332" stroke-width="1.4" stroke-linejoin="round"/>
    <path d="M12 19 C12 11 20 9 25 11 C25 18 20 22 12 19 Z" fill="#95D5B2" stroke="#1B4332" stroke-width="1.4" stroke-linejoin="round"/>
  </g>
  <text x="94" y="54" class="head fg" font-size="25" font-weight="700">Software team</text>
  <text x="40" y="79" class="body fmute" font-size="13.5" font-style="italic">VS Code, repos cloned -- installs straight from the internet</text>

<rect x="640" y="110" width="320" height="218" rx="12" fill="#1B4332"/>
<use href="#ic-doc" x="658" y="123" width="22" height="22" color="#FFFFFF"/>
<text x="692" y="138" class="body fw" font-size="14.0" font-weight="700">seedling-profile.toml</text>
<text x="658" y="154" class="body" fill="#CFE3D6" font-size="10" font-style="italic">one file, read at install and every</text>
<text x="658" y="166" class="body" fill="#CFE3D6" font-size="10" font-style="italic">later `seed apply`</text>
<line x1="658" y1="176" x2="942" y2="176" stroke="#FFFFFF" stroke-width="1" opacity="0.2"/>
<rect x="658" y="184" width="284" height="22" rx="6" fill="#FFFFFF" stroke="#1B4332" stroke-width="0.9"/><text x="667" y="199" class="body fg" font-size="11.5" font-weight="600">python = [...]  →  python/base/</text>
<rect x="658" y="212" width="284" height="22" rx="6" fill="#FFFFFF" stroke="#1B4332" stroke-width="0.9"/><text x="667" y="227" class="body fg" font-size="11.5" font-weight="600">[[venv]]  →  python/venvs/</text>
<rect x="658" y="240" width="284" height="22" rx="6" fill="#FFFFFF" stroke="#1B4332" stroke-width="0.9"/><text x="667" y="255" class="body fg" font-size="11.5" font-weight="600">editor = ...  →  extensions/</text>
<rect x="658" y="268" width="284" height="22" rx="6" fill="#FFFFFF" stroke="#1B4332" stroke-width="0.9"/><text x="667" y="283" class="body fg" font-size="11.5" font-weight="600">tools = [...]  →  system/conda/</text>
<rect x="658" y="296" width="284" height="22" rx="6" fill="#FFFFFF" stroke="#1B4332" stroke-width="0.9"/><text x="667" y="311" class="body fg" font-size="11.5" font-weight="600">[[repo]]  →  repo/</text>
<line x1="800" y1="328" x2="800" y2="358" stroke="#1B4332" stroke-width="1.6" marker-end="url(#arrow)"/>
<text x="810" y="349" class="body fmute" font-size="10.5" font-style="italic">install + seed apply</text>
<rect x="640" y="362" width="320" height="597" rx="12" fill="#EAF3EE" stroke="#1B4332" stroke-width="1.2"/>
<use href="#ic-monitor" x="662" y="366" width="24" height="24" color="#1B4332"/>
<text x="696" y="383" class="body fg" font-size="15" font-weight="700">YOUR MACHINE</text>
<text x="662" y="400" class="body fmute" font-size="11.5" font-style="italic">each engineer's own ~/seedling</text>
<line x1="662" y1="405" x2="938" y2="405" stroke="#1B4332" stroke-width="1" opacity="0.25"/>
<text x="662" y="416" class="body fg" font-size="10.5" font-weight="700" letter-spacing="0.6">WHAT THE USER HAS</text>
<rect x="654" y="430" width="292" height="90" rx="8" fill="#E9F5EC" stroke="#1B4332" stroke-width="1"/>
<use href="#ic-folder" x="662" y="436" width="15" height="15" color="#1B4332"/>
<text x="681" y="447" class="body fg" font-size="12.0" font-weight="700">python/base/</text>
<text x="681" y="458" class="body fmute" font-size="9.5" font-style="italic">interpreters</text>
<rect x="664" y="462" width="272" height="21" rx="6" fill="#FFFFFF" stroke="#1B4332" stroke-width="0.9"/><text x="673" y="476" class="body fg" font-size="11.5" font-weight="600">3.12</text>
<rect x="664" y="489" width="272" height="21" rx="6" fill="#FFFFFF" stroke="#1B4332" stroke-width="0.9"/><text x="673" y="504" class="body fg" font-size="11.5" font-weight="600">3.11</text>
<rect x="654" y="532" width="292" height="90" rx="8" fill="#E9F5EC" stroke="#1B4332" stroke-width="1"/>
<use href="#ic-folder" x="662" y="538" width="15" height="15" color="#1B4332"/>
<text x="681" y="549" class="body fg" font-size="12.0" font-weight="700">python/venvs/</text>
<text x="681" y="560" class="body fmute" font-size="9.5" font-style="italic">one folder per venv</text>
<rect x="664" y="564" width="272" height="21" rx="6" fill="#FFFFFF" stroke="#1B4332" stroke-width="0.9"/><text x="673" y="578" class="body fg" font-size="11.5" font-weight="600">dev</text>
<rect x="664" y="591" width="272" height="21" rx="6" fill="#FFFFFF" stroke="#1B4332" stroke-width="0.9"/><text x="673" y="606" class="body fg" font-size="11.5" font-weight="600">legacy</text>
<rect x="654" y="634" width="292" height="63" rx="8" fill="#E9F5EC" stroke="#1B4332" stroke-width="1"/>
<use href="#ic-folder" x="662" y="640" width="15" height="15" color="#1B4332"/>
<text x="681" y="651" class="body fg" font-size="12.0" font-weight="700">extensions/vscode/</text>
<text x="681" y="662" class="body fmute" font-size="9.5" font-style="italic">portable VS Code + extensions</text>
<rect x="664" y="666" width="272" height="21" rx="6" fill="#FFFFFF" stroke="#1B4332" stroke-width="0.9"/><text x="673" y="680" class="body fg" font-size="11.5" font-weight="600">VS Code</text>
<rect x="654" y="709" width="292" height="117" rx="8" fill="#E9F5EC" stroke="#1B4332" stroke-width="1"/>
<use href="#ic-folder" x="662" y="715" width="15" height="15" color="#1B4332"/>
<text x="681" y="726" class="body fg" font-size="12.0" font-weight="700">system/conda/</text>
<text x="681" y="737" class="body fmute" font-size="9.5" font-style="italic">conda-forge tool envs</text>
<rect x="664" y="741" width="272" height="21" rx="6" fill="#FFFFFF" stroke="#1B4332" stroke-width="0.9"/><text x="673" y="756" class="body fg" font-size="11.5" font-weight="600">ripgrep</text>
<rect x="664" y="768" width="272" height="21" rx="6" fill="#FFFFFF" stroke="#1B4332" stroke-width="0.9"/><text x="673" y="782" class="body fg" font-size="11.5" font-weight="600">gh</text>
<rect x="664" y="795" width="272" height="21" rx="6" fill="#FFFFFF" stroke="#1B4332" stroke-width="0.9"/><text x="673" y="810" class="body fg" font-size="11.5" font-weight="600">just</text>
<rect x="654" y="838" width="292" height="90" rx="8" fill="#E9F5EC" stroke="#1B4332" stroke-width="1"/>
<use href="#ic-folder" x="662" y="844" width="15" height="15" color="#1B4332"/>
<text x="681" y="855" class="body fg" font-size="12.0" font-weight="700">repo/</text>
<text x="681" y="866" class="body fmute" font-size="9.5" font-style="italic">one folder per clone</text>
<rect x="664" y="870" width="272" height="21" rx="6" fill="#FFFFFF" stroke="#1B4332" stroke-width="0.9"/><text x="673" y="884" class="body fg" font-size="11.5" font-weight="600">platform</text>
<rect x="664" y="897" width="272" height="21" rx="6" fill="#FFFFFF" stroke="#1B4332" stroke-width="0.9"/><text x="673" y="912" class="body fg" font-size="11.5" font-weight="600">shared-lib</text>
<rect x="40" y="362" width="470" height="92" rx="12" fill="#E9F5EC" stroke="#1B4332" stroke-width="1.3"/>
<use href="#ic-cloud" x="56" y="374" width="20" height="20" color="#1B4332"/>
<text x="84" y="389" class="body fg" font-size="15.0" font-weight="700">pypi.org</text>
<text x="84" y="403" class="body fmute" font-size="11.0" font-style="italic">package index</text>
<rect x="54" y="408" width="442" height="32" rx="9" fill="#E9F5EC" stroke="#1B4332" stroke-width="1" opacity="0.8"/><text x="66" y="429" class="body fg" font-size="13.0" font-weight="700">Packages</text>
<line x1="510" y1="424" x2="636" y2="424" stroke="#1B4332" stroke-width="1.3" marker-end="url(#arrow)"/>
<text x="575" y="418" text-anchor="middle" class="body fmute" font-size="10.5" font-style="italic">seed apply</text>
<rect x="40" y="480" width="470" height="92" rx="12" fill="#E9F5EC" stroke="#1B4332" stroke-width="1.3"/>
<use href="#ic-cloud" x="56" y="492" width="20" height="20" color="#1B4332"/>
<text x="84" y="507" class="body fg" font-size="15.0" font-weight="700">conda-forge</text>
<text x="84" y="521" class="body fmute" font-size="11.0" font-style="italic">via the vendored micromamba</text>
<rect x="54" y="526" width="442" height="32" rx="9" fill="#E9F5EC" stroke="#1B4332" stroke-width="1" opacity="0.8"/><text x="66" y="547" class="body fg" font-size="13.0" font-weight="700">conda-forge tools</text>
<line x1="510" y1="542" x2="636" y2="542" stroke="#1B4332" stroke-width="1.3" marker-end="url(#arrow)"/>
<text x="575" y="536" text-anchor="middle" class="body fmute" font-size="10.5" font-style="italic">seed forge-install</text>
<rect x="40" y="598" width="470" height="92" rx="12" fill="#E9F5EC" stroke="#1B4332" stroke-width="1.3"/>
<use href="#ic-cloud" x="56" y="610" width="20" height="20" color="#1B4332"/>
<text x="84" y="625" class="body fg" font-size="15.0" font-weight="700">VS Code Marketplace</text>
<text x="84" y="639" class="body fmute" font-size="11.0" font-style="italic">official build + 4 extensions</text>
<rect x="54" y="644" width="442" height="32" rx="9" fill="#E9F5EC" stroke="#1B4332" stroke-width="1" opacity="0.8"/><text x="66" y="665" class="body fg" font-size="13.0" font-weight="700">Editor</text>
<line x1="510" y1="660" x2="636" y2="660" stroke="#1B4332" stroke-width="1.3" marker-end="url(#arrow)"/>
<text x="575" y="654" text-anchor="middle" class="body fmute" font-size="10.5" font-style="italic">seed apply</text>
<rect x="40" y="716" width="470" height="92" rx="12" fill="#E9F5EC" stroke="#1B4332" stroke-width="1.3"/>
<use href="#ic-cloud" x="56" y="728" width="20" height="20" color="#1B4332"/>
<text x="84" y="743" class="body fg" font-size="15.0" font-weight="700">github.com</text>
<text x="84" y="757" class="body fmute" font-size="11.0" font-style="italic">platform.git, shared-lib.git</text>
<rect x="54" y="762" width="442" height="32" rx="9" fill="#E9F5EC" stroke="#1B4332" stroke-width="1" opacity="0.8"/><text x="66" y="783" class="body fg" font-size="13.0" font-weight="700">Repos</text>
<line x1="510" y1="778" x2="636" y2="778" stroke="#1B4332" stroke-width="1.3" marker-end="url(#arrow)"/>
<text x="575" y="772" text-anchor="middle" class="body fmute" font-size="10.5" font-style="italic">seed repo-clone</text>
</svg>